<?xml version="1.0" encoding="UTF-8"?>
<svg xmlns="http://www.w3.org/2000/svg" viewBox="0 0 24 24" width="24px" height="24px">
<g id="surface15017353">
<path style=" stroke:none;fill-rule:nonzero;fill:rgb(85.490197%,36.078432%,36.078432%);fill-opacity:1;" d="M 11.625 0.75 C 5.628906 0.75 0.75 5.628906 0.75 11.625 C 0.75 16.367188 3.804688 20.410156 8.046875 21.890625 C 8.105469 21.933594 8.179688 21.960938 8.253906 21.960938 C 9.316406 22.308594 10.449219 22.5 11.625 22.5 C 17.621094 22.5 22.5 17.621094 22.5 11.625 C 22.5 5.628906 17.621094 0.75 11.625 0.75 Z M 11.625 1.5 C 17.207031 1.5 21.75 6.042969 21.75 11.625 C 21.75 15.996094 18.964844 19.730469 15.074219 21.144531 C 15.035156 21.023438 15 20.84375 15 20.71875 L 15 18.75 C 15 17.964844 14.617188 17.109375 14.238281 16.535156 C 16.320312 16.183594 18.699219 15.105469 18.699219 11.074219 C 18.699219 9.96875 18.351562 8.996094 17.671875 8.175781 C 17.820312 7.683594 18.003906 6.644531 17.492188 5.339844 C 17.449219 5.238281 17.363281 5.15625 17.253906 5.121094 C 17.148438 5.089844 16.1875 4.839844 14.191406 6.148438 C 13.375 5.941406 12.515625 5.832031 11.625 5.828125 C 10.738281 5.832031 9.875 5.941406 9.066406 6.148438 C 7.066406 4.835938 6.101562 5.085938 6 5.121094 C 5.890625 5.15625 5.804688 5.238281 5.765625 5.339844 C 5.246094 6.644531 5.429688 7.683594 5.582031 8.175781 C 4.898438 8.996094 4.554688 9.96875 4.554688 11.074219 C 4.554688 15.066406 6.890625 16.167969 8.953125 16.535156 C 8.695312 16.863281 8.421875 17.285156 8.300781 17.71875 C 7.769531 17.867188 6.675781 17.871094 5.941406 16.613281 C 5.917969 16.566406 5.273438 15.425781 4.007812 15.339844 C 3.808594 15.339844 3.296875 15.371094 3.175781 15.761719 C 3.039062 16.195312 3.515625 16.523438 3.722656 16.660156 C 3.734375 16.667969 3.753906 16.679688 3.769531 16.6875 C 3.792969 16.699219 4.339844 16.988281 4.746094 18.011719 C 4.832031 18.28125 5.578125 20.300781 8.253906 19.945312 C 8.253906 20.242188 8.253906 20.390625 8.25 20.507812 L 8.25 20.71875 C 8.25 20.839844 8.214844 21.023438 8.171875 21.140625 C 4.28125 19.726562 1.5 15.996094 1.5 11.625 C 1.5 6.042969 6.042969 1.5 11.625 1.5 Z M 11.535156 2.625 C 10.070312 2.644531 8.625 3.027344 7.351562 3.753906 C 7.171875 3.855469 7.109375 4.085938 7.210938 4.265625 C 7.28125 4.386719 7.40625 4.457031 7.539062 4.457031 C 7.601562 4.457031 7.664062 4.441406 7.722656 4.40625 C 9.273438 3.523438 11.105469 3.191406 12.878906 3.476562 C 13.082031 3.507812 13.273438 3.371094 13.308594 3.164062 C 13.339844 2.957031 13.199219 2.765625 12.996094 2.734375 C 12.511719 2.65625 12.023438 2.621094 11.535156 2.625 Z M 14.496094 3.144531 C 14.351562 3.152344 14.214844 3.242188 14.164062 3.386719 C 14.089844 3.582031 14.1875 3.796875 14.382812 3.871094 C 14.648438 3.972656 14.914062 4.085938 15.171875 4.214844 C 15.222656 4.242188 15.28125 4.253906 15.339844 4.253906 C 15.476562 4.253906 15.605469 4.179688 15.675781 4.050781 C 15.765625 3.867188 15.691406 3.640625 15.507812 3.546875 C 15.226562 3.40625 14.9375 3.277344 14.644531 3.167969 C 14.597656 3.152344 14.546875 3.144531 14.496094 3.144531 Z M 16.871094 5.832031 C 17.273438 7.015625 16.996094 7.875 16.898438 8.117188 C 16.84375 8.25 16.871094 8.40625 16.96875 8.511719 C 17.617188 9.222656 17.945312 10.082031 17.945312 11.074219 C 17.945312 14.875 15.695312 15.636719 13.488281 15.882812 C 13.339844 15.898438 13.214844 16 13.171875 16.144531 C 13.125 16.285156 13.171875 16.441406 13.285156 16.539062 C 13.582031 16.792969 14.25 17.894531 14.25 18.75 L 14.25 20.71875 C 14.25 20.726562 14.25 21.054688 14.359375 21.371094 C 13.488281 21.617188 12.574219 21.75 11.625 21.75 C 10.675781 21.75 9.757812 21.613281 8.886719 21.371094 C 8.996094 21.050781 9 20.722656 9 20.71875 L 9 20.519531 C 9 20.347656 9.003906 20.117188 9 19.5 C 9 19.382812 8.945312 19.277344 8.859375 19.207031 C 8.773438 19.136719 8.65625 19.109375 8.542969 19.132812 C 6.027344 19.683594 5.480469 17.863281 5.460938 17.789062 C 5.457031 17.777344 5.453125 17.765625 5.449219 17.75 C 5.085938 16.835938 4.613281 16.371094 4.332031 16.160156 C 4.941406 16.375 5.28125 16.972656 5.292969 16.984375 C 6.28125 18.683594 7.921875 18.726562 8.777344 18.34375 C 8.894531 18.289062 8.976562 18.179688 8.996094 18.050781 C 9.070312 17.515625 9.660156 16.808594 9.957031 16.546875 C 10.070312 16.449219 10.113281 16.292969 10.066406 16.152344 C 10.023438 16.011719 9.902344 15.910156 9.753906 15.890625 C 7.554688 15.640625 5.304688 14.871094 5.304688 11.074219 C 5.304688 10.085938 5.632812 9.222656 6.285156 8.511719 C 6.382812 8.40625 6.410156 8.25 6.355469 8.117188 C 6.257812 7.875 5.980469 7.019531 6.382812 5.832031 C 6.699219 5.84375 7.476562 5.976562 8.789062 6.867188 C 8.878906 6.929688 8.996094 6.949219 9.101562 6.917969 C 9.882812 6.699219 10.757812 6.582031 11.625 6.578125 C 12.496094 6.582031 13.371094 6.699219 14.15625 6.917969 C 14.261719 6.949219 14.375 6.929688 14.464844 6.867188 C 15.78125 5.972656 16.558594 5.839844 16.871094 5.832031 Z M 8.015625 12.898438 C 7.871094 12.878906 7.722656 12.949219 7.644531 13.082031 L 7.269531 13.730469 C 7.164062 13.910156 7.226562 14.140625 7.40625 14.246094 C 7.464844 14.277344 7.527344 14.292969 7.59375 14.292969 C 7.722656 14.292969 7.847656 14.226562 7.917969 14.105469 L 8.292969 13.457031 C 8.394531 13.277344 8.335938 13.046875 8.15625 12.945312 C 8.109375 12.917969 8.0625 12.902344 8.015625 12.898438 Z M 15.234375 12.898438 C 15.1875 12.902344 15.136719 12.917969 15.09375 12.945312 C 14.914062 13.046875 14.855469 13.277344 14.957031 13.460938 L 15.332031 14.109375 C 15.402344 14.226562 15.527344 14.296875 15.65625 14.296875 C 15.722656 14.296875 15.785156 14.277344 15.84375 14.246094 C 16.023438 14.140625 16.085938 13.910156 15.980469 13.734375 L 15.605469 13.085938 C 15.527344 12.949219 15.378906 12.878906 15.234375 12.898438 Z M 13.570312 13.628906 C 13.523438 13.621094 13.472656 13.625 13.417969 13.640625 C 13.21875 13.691406 13.101562 13.898438 13.152344 14.097656 L 13.347656 14.824219 C 13.394531 14.988281 13.546875 15.101562 13.710938 15.101562 C 13.746094 15.101562 13.777344 15.09375 13.808594 15.089844 C 14.007812 15.035156 14.128906 14.828125 14.074219 14.628906 L 13.882812 13.902344 C 13.839844 13.753906 13.714844 13.648438 13.570312 13.628906 Z M 9.679688 13.628906 C 9.535156 13.648438 9.410156 13.753906 9.371094 13.902344 L 9.175781 14.628906 C 9.121094 14.828125 9.242188 15.035156 9.441406 15.085938 C 9.472656 15.097656 9.503906 15.097656 9.539062 15.097656 C 9.703125 15.097656 9.855469 14.988281 9.902344 14.824219 L 10.097656 14.097656 C 10.148438 13.898438 10.03125 13.691406 9.832031 13.640625 C 9.78125 13.625 9.730469 13.621094 9.679688 13.628906 Z M 11.625 13.875 C 11.417969 13.875 11.25 14.042969 11.25 14.25 L 11.25 15 C 11.25 15.207031 11.417969 15.375 11.625 15.375 C 11.832031 15.375 12 15.207031 12 15 L 12 14.25 C 12 14.042969 11.832031 13.875 11.625 13.875 Z M 11.625 13.875 "/>
</g>
</svg>
