<?xml version="1.0" encoding="UTF-8"?>
<svg xmlns="http://www.w3.org/2000/svg" viewBox="0 0 24 24" width="24px" height="24px">
<g id="surface15030448">
<path style=" stroke:none;fill-rule:nonzero;fill:rgb(85.490197%,36.078432%,36.078432%);fill-opacity:1;" d="M 4.875 2.25 C 3.429688 2.25 2.25 3.429688 2.25 4.875 L 2.25 19.125 C 2.25 20.570312 3.429688 21.75 4.875 21.75 L 19.125 21.75 C 20.570312 21.75 21.75 20.570312 21.75 19.125 L 21.75 4.875 C 21.75 3.429688 20.570312 2.25 19.125 2.25 Z M 4.875 3 L 19.125 3 C 20.160156 3 21 3.839844 21 4.875 L 21 19.125 C 21 20.160156 20.160156 21 19.125 21 L 4.875 21 C 3.839844 21 3 20.160156 3 19.125 L 3 4.875 C 3 3.839844 3.839844 3 4.875 3 Z M 4.5 4.5 C 4.292969 4.5 4.125 4.667969 4.125 4.875 L 4.125 5.625 C 4.125 5.832031 4.292969 6 4.5 6 C 4.707031 6 4.875 5.832031 4.875 5.625 L 4.875 4.875 C 4.875 4.667969 4.707031 4.5 4.5 4.5 Z M 6.375 4.5 C 6.167969 4.5 6 4.667969 6 4.875 L 6 5.625 C 6 5.832031 6.167969 6 6.375 6 C 6.582031 6 6.75 5.832031 6.75 5.625 L 6.75 4.875 C 6.75 4.667969 6.582031 4.5 6.375 4.5 Z M 8.25 4.5 C 8.042969 4.5 7.875 4.667969 7.875 4.875 L 7.875 5.625 C 7.875 5.832031 8.042969 6 8.25 6 C 8.457031 6 8.625 5.832031 8.625 5.625 L 8.625 4.875 C 8.625 4.667969 8.457031 4.5 8.25 4.5 Z M 10.125 4.5 C 9.917969 4.5 9.75 4.667969 9.75 4.875 L 9.75 5.625 C 9.75 5.832031 9.917969 6 10.125 6 C 10.332031 6 10.5 5.832031 10.5 5.625 L 10.5 4.875 C 10.5 4.667969 10.332031 4.5 10.125 4.5 Z M 12 4.5 C 11.792969 4.5 11.625 4.667969 11.625 4.875 L 11.625 5.625 C 11.625 5.832031 11.792969 6 12 6 C 12.207031 6 12.375 5.832031 12.375 5.625 L 12.375 4.875 C 12.375 4.667969 12.207031 4.5 12 4.5 Z M 13.875 4.5 C 13.667969 4.5 13.5 4.667969 13.5 4.875 L 13.5 5.625 C 13.5 5.832031 13.667969 6 13.875 6 C 14.082031 6 14.25 5.832031 14.25 5.625 L 14.25 4.875 C 14.25 4.667969 14.082031 4.5 13.875 4.5 Z M 15.75 4.5 C 15.542969 4.5 15.375 4.667969 15.375 4.875 L 15.375 5.625 C 15.375 5.832031 15.542969 6 15.75 6 C 15.957031 6 16.125 5.832031 16.125 5.625 L 16.125 4.875 C 16.125 4.667969 15.957031 4.5 15.75 4.5 Z M 17.625 4.5 C 17.417969 4.5 17.25 4.667969 17.25 4.875 L 17.25 5.625 C 17.25 5.832031 17.417969 6 17.625 6 C 17.832031 6 18 5.832031 18 5.625 L 18 4.875 C 18 4.667969 17.832031 4.5 17.625 4.5 Z M 19.5 4.5 C 19.292969 4.5 19.125 4.667969 19.125 4.875 L 19.125 5.625 C 19.125 5.832031 19.292969 6 19.5 6 C 19.707031 6 19.875 5.832031 19.875 5.625 L 19.875 4.875 C 19.875 4.667969 19.707031 4.5 19.5 4.5 Z M 7.3125 6.75 C 6.382812 6.75 5.625 7.507812 5.625 8.4375 C 5.625 9.367188 6.382812 10.125 7.3125 10.125 C 8.242188 10.125 9 9.367188 9 8.4375 C 9 7.507812 8.242188 6.75 7.3125 6.75 Z M 7.3125 7.375 C 7.898438 7.375 8.375 7.851562 8.375 8.4375 C 8.375 9.023438 7.898438 9.5 7.3125 9.5 C 6.726562 9.5 6.25 9.023438 6.25 8.4375 C 6.25 7.851562 6.726562 7.375 7.3125 7.375 Z M 14.953125 10.289062 C 14.085938 10.289062 13.398438 10.59375 12.914062 10.992188 L 12.914062 10.863281 C 12.914062 10.660156 12.746094 10.488281 12.539062 10.488281 L 10.125 10.488281 C 9.917969 10.488281 9.75 10.660156 9.75 10.863281 L 9.75 19.125 C 9.75 19.332031 9.917969 19.5 10.125 19.5 L 12.640625 19.5 C 12.847656 19.5 13.015625 19.332031 13.015625 19.125 L 13.015625 14.957031 C 13.015625 13.714844 13.320312 13.253906 14.148438 13.253906 C 14.945312 13.253906 15.082031 13.800781 15.082031 15.023438 L 15.082031 19.125 C 15.082031 19.332031 15.246094 19.5 15.457031 19.5 L 17.972656 19.5 C 18.179688 19.5 18.347656 19.332031 18.347656 19.125 L 18.347656 14.519531 C 18.347656 12.429688 17.945312 10.289062 14.953125 10.289062 Z M 6 10.5 C 5.792969 10.5 5.625 10.667969 5.625 10.875 L 5.625 19.125 C 5.625 19.332031 5.792969 19.5 6 19.5 L 8.625 19.5 C 8.832031 19.5 9 19.332031 9 19.125 L 9 10.875 C 9 10.667969 8.832031 10.5 8.625 10.5 Z M 14.953125 11.039062 C 17.15625 11.039062 17.597656 12.371094 17.597656 14.519531 L 17.597656 18.75 L 15.832031 18.75 L 15.832031 15.023438 C 15.832031 14.144531 15.832031 12.503906 14.148438 12.503906 C 12.261719 12.503906 12.261719 14.351562 12.261719 14.957031 L 12.261719 18.75 L 10.5 18.75 L 10.5 11.238281 L 12.164062 11.238281 L 12.164062 11.972656 C 12.164062 12.179688 12.363281 12.347656 12.574219 12.347656 C 12.710938 12.347656 12.839844 12.269531 12.902344 12.144531 C 13.171875 11.636719 13.871094 11.039062 14.953125 11.039062 Z M 6.375 11.25 L 8.25 11.25 L 8.25 18.75 L 6.375 18.75 Z M 6.375 11.25 "/>
</g>
</svg>
